<?xml version="1.0" standalone="no"?>
<!DOCTYPE svg PUBLIC "-//W3C//DTD SVG 20010904//EN"
 "http://www.w3.org/TR/2001/REC-SVG-20010904/DTD/svg10.dtd">
<svg version="1.0" xmlns="http://www.w3.org/2000/svg"
 width="612.000000pt" height="612.000000pt" viewBox="0 0 612.000000 612.000000"
 preserveAspectRatio="xMidYMid meet">
<metadata>
Created by potrace 1.14, written by Peter Selinger 2001-2017
</metadata>
<g transform="translate(0.000000,612.000000) scale(0.100000,-0.100000)"
fill="#000000" stroke="none">
<path d="M3406 4858 c3 -5 10 -6 15 -3 13 9 11 12 -6 12 -8 0 -12 -4 -9 -9z"/>
<path d="M3444 4863 c7 -13 -10 -18 -42 -14 -8 1 -23 -8 -34 -21 -11 -13 -23
-23 -28 -23 -5 0 -12 -3 -16 -7 -4 -4 -13 -3 -21 3 -8 7 -13 8 -13 1 0 -5 -14
-15 -30 -22 -17 -7 -39 -23 -49 -36 -10 -13 -21 -20 -25 -17 -3 3 -6 0 -6 -7
0 -7 -8 -20 -18 -29 -10 -9 -26 -33 -35 -53 -10 -21 -21 -38 -25 -38 -4 0 -8
-8 -9 -19 -1 -10 -9 -36 -19 -57 -10 -21 -18 -43 -19 -49 -1 -5 -4 -23 -8 -40
-14 -58 -18 -80 -22 -105 -9 -74 -17 -149 -18 -177 -1 -18 -5 -33 -8 -33 -4 0
-5 -13 -4 -30 1 -16 0 -30 -4 -30 -9 0 -10 -16 -14 -150 -4 -116 -1 -153 12
-145 4 2 8 -2 8 -9 0 -8 -7 -12 -15 -8 -10 3 -13 1 -8 -6 4 -7 15 -12 24 -12
15 0 15 -2 2 -10 -10 -6 -11 -10 -2 -10 6 0 12 -7 12 -16 0 -8 -4 -13 -9 -10
-12 8 -7 -24 5 -32 14 -10 11 -31 -6 -43 -13 -9 -12 -10 2 -5 20 6 34 -9 18
-19 -6 -4 -8 -11 -5 -16 4 -5 -2 -9 -12 -9 -10 0 -27 -6 -38 -14 -17 -11 -62
-27 -86 -30 -25 -4 -129 -92 -144 -122 -27 -58 -59 -249 -70 -424 -7 -113 -15
-203 -20 -231 -3 -13 -7 -75 -10 -139 -8 -166 -14 -219 -27 -243 -13 -24 -16
-53 -18 -138 -2 -78 31 -141 98 -188 27 -19 41 -22 70 -17 53 10 102 12 112 6
5 -3 3 -27 -6 -55 -8 -28 -17 -75 -19 -105 -4 -74 -6 -80 -65 -198 -42 -85
-51 -114 -55 -170 -2 -37 -8 -80 -13 -97 -4 -16 -7 -106 -7 -200 l2 -170 745
-3 746 -2 -14 72 c-8 40 -16 93 -19 118 -2 25 -7 63 -11 85 -4 22 -8 51 -9 65
-1 14 -7 39 -14 55 -7 17 -22 57 -33 90 -12 33 -27 70 -35 82 -10 15 -11 23
-3 28 8 5 8 11 1 19 -6 7 -12 39 -13 71 -3 54 -6 63 -43 100 -42 43 -45 56
-14 88 23 25 24 45 2 76 -16 24 -16 24 13 16 16 -4 36 -9 44 -10 8 -2 15 -4
15 -5 0 -2 26 -8 70 -15 22 -3 81 -17 131 -31 89 -25 93 -25 125 -8 49 25 87
70 100 117 18 68 27 139 22 180 -2 21 -6 143 -8 270 -6 339 -13 569 -18 597
-4 23 -56 220 -73 280 -10 32 -23 56 -59 106 -30 42 -40 49 -107 79 -21 10
-39 21 -39 26 -4 29 -30 79 -41 79 -5 0 -6 5 -3 10 3 6 -1 10 -10 10 -9 0 -13
5 -10 10 3 6 -1 10 -9 10 -14 0 -20 12 -17 33 0 4 -4 7 -10 7 -6 0 -9 7 -6 15
4 8 1 17 -5 21 -7 4 -8 3 -4 -4 4 -7 2 -12 -4 -12 -15 0 -40 25 -40 40 0 6 -5
8 -12 4 -6 -4 -8 -3 -4 4 3 6 -2 18 -11 28 -17 17 -17 18 0 11 15 -6 16 -4 7
13 -6 11 -13 20 -16 20 -3 0 -2 -6 2 -12 4 -7 4 -10 -1 -6 -7 6 -10 25 -18
101 0 9 -4 17 -7 17 -4 0 -5 14 -2 30 2 17 8 30 12 30 5 0 3 13 -3 29 -6 17
-14 28 -17 26 -3 -2 -7 4 -8 13 -4 40 -9 59 -25 90 -13 24 -14 32 -5 32 9 0
10 2 1 8 -6 4 -13 21 -16 37 -3 17 -12 49 -21 73 -8 23 -15 46 -16 50 -1 15
-24 79 -47 130 -48 105 -110 187 -190 252 -32 26 -160 85 -177 81 -4 -1 -15 4
-24 11 -12 10 -14 10 -8 1z m-314 -1213 c0 -5 -2 -10 -4 -10 -3 0 -8 5 -11 10
-3 6 -1 10 4 10 6 0 11 -4 11 -10z m990 -1017 c1 -103 8 -177 17 -180 13 -5 6
-72 -8 -87 -5 -6 -1 -18 9 -30 12 -14 13 -17 2 -10 -15 9 -25 10 -75 13 -25 1
-25 2 -21 61 3 34 7 64 10 68 2 4 7 29 10 55 4 27 14 60 23 73 8 13 12 24 9
24 -4 0 -2 9 4 20 15 27 20 25 20 -7z m-108 -854 c10 -13 20 -47 23 -74 4 -47
4 -49 -11 -30 -18 22 -44 79 -50 108 -2 10 -9 26 -16 35 -12 15 -11 16 12 1
13 -9 32 -27 42 -40z"/>
<path d="M4053 3838 c3 -9 1 -19 -6 -22 -9 -3 -9 -5 0 -5 18 -1 23 13 11 29
-8 12 -9 12 -5 -2z"/>
</g>
</svg>
